# xmcd
#
# Track frame offsets:
# 150
# 24006
# 45118
# 64744
# 82512
# 98463
# 111651
# 121416
# 132765
# 154659
# 180630
# 194840
# 214036
# 233443
# 247055
# 272573
#
# Disc length: 4146 seconds
#
#
# Revision: 2
# Processed by: cddbd v1.5.2PL0 Copyright (c) Steve Scherf et al.
# Submitted via: FreeRIP 2.96 
#
DISCID=c6103010
DTITLE=Tilders, Dutch [AUS] - I'm a Bluesman
DYEAR=1998
DGENRE=Blues
TTITLE0=Going Back to the City [from 'I'm a Bluesman', 1998] [MLVox]
TTITLE1=I'm a Bluesman [from 'I'm a Bluesman', 1998] [MLVox]
TTITLE2=Folk Song Medley (You are My Sunshine/Freight Train/Creole Bell/Blowin' in the Wind) [from 'I'm a Bluesman', 1998] [MLVox]
TTITLE3=Almost Lost My Mind [from 'I'm a Bluesman', 1998] [MLVox]
TTITLE4=Imagination Blues [from 'I'm a Bluesman', 1998] [MLVox]
TTITLE5=Blueberry Hill [from 'I'm a Bluesman', 1998] [MLVox]
TTITLE6=Grasshopper Loose in Qld [from 'I'm a Bluesman', 1998] [MLVox]
TTITLE7=Bill Bailey [from 'I'm a Bluesman', 1998] [MLVox]
TTITLE8=Nobody Knows You When You're Down and Out [from 'I'm a Bluesman', 1998] [MLVox]
TTITLE9=Trouble in Mind [from 'I'm a Bluesman', 1998] [MLVox]
TTITLE10=If You See Me Comin' [from 'I'm a Bluesman', 1998] [MLVox]
TTITLE11=Chimney Sweep [from 'I'm a Bluesman', 1998] [MLVox]
TTITLE12=In the Evening When the Sun Goes Down [from 'I'm a Bluesman', 1998] [MLVox]
TTITLE13=Hey Baby Hey [from 'I'm a Bluesman', 1998] [MLVox]
TTITLE14=Baby What's Wrong [from 'I'm a Bluesman', 1998] [MLVox]
TTITLE15=[Data Track]
EXTD=Australian artist
EXTT0=Going Back To The City
EXTT1=I'm A Bluesman
EXTT2=Folk Song Medley
EXTT3=Almost Lost My Mind
EXTT4=Imagination Blues
EXTT5=Blueberry Hill
EXTT6=Grasshopper Loose in Qld
EXTT7=Bill Bailey
EXTT8=Nobody Knows You When You're Down And Out
EXTT9=Trouble In Mind
EXTT10=If You See Me Comin'
EXTT11=Chimney Sweep
EXTT12=In The Evening When The Sun Goes Down
EXTT13=Hey Baby Hey
EXTT14=Baby What's Wrong
EXTT15=xxx
PLAYORDER=
